Blue.Valentine.2010.DVDSCR.XViD-T0XiC-iNK


IMDB........http://www.imdb.com/title/tt1120985/


::::::::::::::Enjoy:Another:Release:From:T0XiC::::::::::::::


File:: Blue.Valentine.2010.DVDSCR.AC3.XViD-T0XiC-iNK
Video Source:: ....Demedic thx
Audio Source:: ....Demedic thx matey
Language::English
IMDB::http://www.imdb.com/title/tt1120985/

The film centers on a contemporary married couple, charting their evolution
over a span of years by cross-cutting between time periods.

Specs::

General
Format : AVI
Format/Info : Audio Video Interleave
File size : 1.30 GiB
Duration : 1h 52mn
Overall bit rate : 1 659 Kbps
Writing application : VirtualDubMod 1.5.10.2 (build 2540/release)
Writing library : VirtualDubMod build 2540/release

Video
ID : 0
Format : MPEG-4 Visual
Format profile : Advanced Simple@L5
Format settings, BVOP : Yes
Format settings, QPel : No
Format settings, GMC : No warppoints
Format settings, Matrix : Default (H.263)
Muxing mode : Packed bitstream
Codec ID : XVID
Codec ID/Hint : XviD
Duration : 1h 52mn
Bit rate : 1 202 Kbps
Width : 720 pixels
Height : 390 pixels
Display aspect ratio : 16:9
Frame rate : 23.976 fps
Color space : YUV
Chroma subsampling : 4:2:0
Bit depth : 8 bits
Scan type : Progressive
Bits/(Pixel*Frame) : 0.179
Stream size : 964 MiB (72%)
Writing library : XviD 1.2.1 (UTC 2008-12-04)

Audio
ID : 1
Format : AC-3
Format/Info : Audio Coding 3
Mode extension : CM (complete main)
Codec ID : 2000
Duration : 1h 52mn
Bit rate mode : Constant
Bit rate : 448 Kbps
Channel(s) : 6 channels
Channel positions : Front: L C R, Side: L R, LFE
Sampling rate : 48.0 KHz
Bit depth : 16 bits
Stream size : 359 MiB (27%)
Alignment : Split accross interleaves
Interleave, duration : 42 ms (1.00 video frame)
Interleave, preload duration : 500 ms



NOTES:: T0XiC-iNK brings you a DVDSCR beautifully 2 pass encoded, correct AR with 5.1 sound.
As always, Enjoy


::Why Complain? Whats Free Is Free::

::iNK is currently a free agent looking for work, if you would like iNK's touch, give me a email at:

...digital.ink@live.com or MSN add me.

::We are always looking for friends with unreleased DVD's, Screeners, R5's, Audio, Cams, Silvers,
...and any other good sources you may have to offer - contact us: t0xicreleases@hushmail.com

:::::::::::::::::::::::::::::::::::: Respect To :::::::::::::::::::::::::::::::::::::
::IMAGiNE,FLAWL3SS,Hive-CM8,DiGiTALiNK,Tranz,Vik,OneTwo,Joey,bob,& our friends on utn and PA::
"and to all of you who support us, Thank-You"


Screenshots:

 
http://www.leetleech.org/images/97778271001797520559.jpg


ENJOY!